<svg xmlns="http://www.w3.org/2000/svg" viewBox="0 0 86 86">
  <g fill="none" fill-rule="evenodd">
    <path fill="#5e2ca5" d="M40.56 8.478c0-.465-.304-.774-.757-.774-.454 0-.756.31-.756.774v26.405c0 .465.302.775.756.775.453 0 .756-.31.756-.775V8.478zm-.757 63.342c.453 0 .756-.31.756-.775V49.983c0-.465-.31-.774-.76-.774-.46 0-.76.3-.76.77v21.06c0 .46.38.77.75.77zm-3.78-39.88c.075.31.378.543.68.543.076 0 .15 0 .227-.078.378-.155.605-.62.454-1.006l-3.856-10.92c-.15-.39-.605-.62-.983-.47-.378.15-.604.62-.453 1l3.93 10.92zm-5.065-18.042c-.15-.387-.605-.62-.983-.464-.378.155-.605.62-.453 1.006l1.36 3.485c.152.31.378.465.68.465.076 0 .152 0 .303-.078.378-.155.605-.62.454-1.007l-1.37-3.407zm11.34 31.982c-.15-.388-.605-.62-.983-.466-.378.155-.605.62-.454 1.007l5.07 14.41c.08.31.38.54.68.54.08 0 .15 0 .23-.08.38-.15.61-.62.46-1l-5-14.41zm-21.47-28.807c-.302.31-.378.775-.075 1.084l16.555 20.598c.15.155.378.31.605.31.15 0 .302-.078.453-.155.303-.31.378-.775.076-1.084L21.962 17.15c-.302-.31-.756-.387-1.134-.077zm37.496 48.32c.15 0 .302-.078.453-.155.302-.31.378-.775.076-1.085L46 48.125c-.3-.31-.754-.388-1.057-.078-.302.31-.378.774-.075 1.084l12.85 16.03c.152.16.38.24.606.24zm-40.368-38.1c-.227.388-.076.85.226 1.085l12.7 7.74c.152.08.227.08.378.08.227 0 .53-.156.68-.39.227-.386.076-.85-.226-1.083l-12.7-7.743c-.378-.155-.832-.078-1.058.31zm43.996 28.03c.227 0 .53-.153.68-.385.227-.39.076-.854-.226-1.086l-20.638-12.62c-.378-.233-.83-.08-1.058.23-.227.388-.076.853.227 1.085L61.5 55.17c.15.078.3.156.452.156zM31.336 39.84c.378 0 .68-.233.756-.62.075-.388-.15-.852-.605-.93L11 34.11c-.377-.08-.83.154-.906.618-.076.465.15.852.604.93l20.487 4.18h.15zm17.387 3.716l17.765 3.64h.15c.38 0 .68-.233.757-.62.076-.387-.15-.852-.605-.93l-17.765-3.56c-.378-.08-.83.153-.907.618 0 .387.227.774.605.852zm-3.326-2.943h.075l12.474-1.936c.378-.077.68-.464.604-.85-.075-.388-.453-.698-.83-.62L45.245 39.14c-.378.078-.68.465-.605.852.076.31.38.62.757.62zM20.45 42.86c-.378.076-.68.464-.605.85.076.388.378.698.756.698h.08l14.74-2.246c.38-.077.68-.465.61-.852-.07-.387-.45-.697-.83-.62l-14.74 2.17zm40.822-6.273c-.378.077-.68.464-.605.852.076.38.378.69.756.69h.15l1.135-.16c.378-.08.68-.47.605-.85-.076-.39-.454-.7-.832-.62l-1.2.07zm-45.055 6.89c-.378.08-.68.466-.605.853.076.387.378.697.756.697h.15l1.135-.155c.378-.077.68-.464.605-.852-.076-.387-.454-.696-.832-.62l-1.21.078zM66.11 26.21c-.227-.387-.68-.542-1.06-.31l-17.16 9.45c-.377.232-.528.697-.3 1.084.15.232.377.387.68.387.15 0 .226 0 .377-.07l17.16-9.44c.378-.23.53-.69.303-1.08zM32.848 44.717c-.227-.387-.68-.542-1.058-.31l-17.085 9.448c-.378.232-.53.697-.302 1.084.15.23.378.38.68.38.15 0 .227 0 .378-.08l17.16-9.44c.31-.23.46-.7.23-1.09zm8.392-5.652c.15.155.3.232.528.232.227 0 .378-.077.53-.232l14.967-16.96c.303-.308.227-.773-.075-1.083-.303-.31-.756-.232-1.06.078L41.24 37.903c-.303.387-.303.852 0 1.162zm-2.345 2.555c-.302-.31-.755-.232-1.058.077L22.87 58.733c-.303.31-.228.774.075 1.084.15.155.302.232.53.232.226 0 .377-.08.528-.24L38.97 42.86c.228-.466.228-.93-.075-1.24zM20.98 60.98l-1.664 1.935c-.302.31-.227.774.076 1.084.15.15.302.23.53.23.226 0 .377-.08.528-.23l1.663-1.94c.303-.31.227-.78-.075-1.09-.303-.31-.756-.31-1.06 0zm38.704-41.894l1.663-1.935c.303-.31.227-.77-.075-1.08-.303-.31-.756-.23-1.06.08l-1.662 1.93c-.302.31-.226.78.076 1.09.15.16.302.23.53.23.226 0 .377-.07.528-.31zM44.716 29.308c.303 0 .605-.155.68-.465l6.2-15.41c.15-.386 0-.85-.378-1.006-.378-.155-.832 0-.983.387l-6.2 15.41c-.15.387 0 .852.38 1.006.075 0 .226.078.3.078zM37.08 46.73l-7.483 18.662c-.15.388 0 .852.378 1.007.076.07.227.07.303.07.302 0 .604-.16.68-.47l7.56-18.66c.15-.39 0-.86-.378-1.01-.454-.16-.908 0-1.06.38zm-26.91-35l-.303 1.394-1.285.542c-.303.077-.454.387-.53.697-.075.31.152.542.38.697l1.208.697.076 1.394c0 .31.226.55.453.7.07.08.22.08.3.08.15 0 .38-.07.53-.15l1.05-.93 1.36.39c.3.08.6 0 .75-.23.15-.23.22-.54.15-.77l-.53-1.31.75-1.24c.15-.23.15-.54 0-.85-.15-.23-.46-.39-.68-.39l-1.36.16-1.06-1.16c-.15-.23-.46-.31-.76-.23-.23 0-.46.24-.53.55zm.604 2.71c.227-.077.378-.31.454-.542l.075-.232.15.232c.153.233.38.31.682.31h.302l-.15.232c-.152.233-.152.465-.077.697l.076.233-.227-.155c-.23-.078-.53 0-.68.155l-.23.154v-.31c0-.232-.15-.464-.38-.62l-.23-.076.22-.078zm57.982 46.616c-.152-.232-.454-.387-.68-.387l-1.36.15-.984-1.09c-.15-.24-.454-.31-.756-.24-.302.08-.53.31-.53.62l-.302 1.39-1.285.54c-.31.07-.46.38-.46.69 0 .31.15.54.38.7l1.21.69.07 1.393c0 .31.22.544.45.7.07.08.22.08.3.08.15 0 .37-.08.53-.155l1.05-.93 1.36.39c.3.08.6 0 .75-.23.15-.23.22-.54.15-.77l-.68-1.55.75-1.24c.15-.233.15-.543 0-.775zm-2.344 2.246l.076.232-.227-.077c-.22-.078-.52 0-.68.154l-.22.16v-.31c0-.23-.15-.46-.38-.62l-.22-.15.23-.07c.23-.08.38-.31.45-.54l.08-.23.15.24c.15.23.38.31.68.31h.31l-.15.23c-.15.23-.15.47-.08.7zm-57.528 6.04c0 .31.227.542.454.697.075.07.226.07.302.07.15 0 .378-.08.53-.16l1.058-.93 1.36.39c.303.07.605 0 .756-.24.15-.24.227-.54.15-.78l-.68-1.47.757-1.24c.16-.23.16-.54 0-.85-.15-.31-.45-.39-.68-.39l-1.36.15-.9-1.09c-.15-.238-.45-.31-.75-.238-.3.08-.53.31-.53.62l-.3 1.4-1.28.54c-.3.077-.45.387-.45.697 0 .31 0 .46.23.62l1.21.69.15 1.47zm.983-2.788c.227-.077.378-.31.453-.542l.076-.232.15.232c.152.232.38.31.682.31h.302l-.15.232c-.152.232-.152.465-.077.697l.076.24-.23-.07c-.23-.08-.53 0-.68.16l-.23.16v-.31c0-.23-.15-.46-.38-.62l-.23-.15.22-.07zM61.574 8.788l-1.36-.465-.38-1.394c-.074-.31-.3-.47-.603-.55-.3-.08-.6.08-.75.31l-.83 1.16h-1.44c-.3 0-.53.15-.68.39-.15.23-.07.54.08.85l.83 1.16-.45 1.31c-.07.31 0 .62.15.77.23.23.53.31.76.23l1.36-.47 1.14.85c.15.07.3.15.45.15.15 0 .23 0 .31-.08.23-.16.46-.39.46-.7v-1.47l1.14-.777c.23-.155.38-.465.308-.774-.08-.31-.23-.466-.456-.543zm-2.192 1.16c-.227.156-.303.388-.303.62v.31l-.23-.154c-.15-.078-.31-.155-.46-.155h-.23l-.23.07.07-.23c.07-.24.07-.54-.08-.7l-.15-.23h.3c.22 0 .45-.08.6-.31l.15-.23.073.23c.077.23.23.46.455.54l.23.07-.23.15zM10.472 50.37c.53 0 .982-.155 1.36-.542.907-.774.983-2.168.152-3.097-.756-.93-2.117-1-3.024-.15-.907.78-.983 2.17-.15 3.1.452.47 1.057.7 1.662.7zm-.454-2.633c.15-.077.227-.155.378-.155.15 0 .302.078.454.233.226.232.226.62-.076.852-.227.232-.605.232-.832-.078-.15-.24-.15-.62.076-.86zm39.385 21.605c.53 0 .983-.155 1.36-.542.908-.775.984-2.17.152-3.098-.756-.93-2.117-1.006-2.948-.232-.454.387-.68.93-.68 1.47 0 .543.15 1.163.53 1.55.377.62.98.852 1.586.852zm-.453-2.633c.15-.08.226-.16.378-.16.15 0 .302.07.453.23.23.23.23.62-.07.85-.22.23-.6.23-.83-.08-.07-.16-.15-.31-.15-.47.08-.08.15-.23.23-.39zM12.437 22.18c-.53 0-1.134.155-1.512.542-.907.774-.983 2.168-.15 3.097.377.46.906.69 1.435.69h.152c.53 0 .982-.16 1.36-.55.454-.39.68-.93.68-1.47 0-.55-.15-1.17-.53-1.55-.377-.47-.83-.78-1.435-.78zm.302 2.633c-.16.077-.31.155-.46.155-.15 0-.3-.077-.38-.232-.23-.234-.23-.62.07-.854.07-.077.22-.154.38-.154h.07c.15 0 .3.077.38.232.07.155.15.31.15.464-.08.154-.15.31-.23.387z" opacity=".5"/>
    <path fill="#fff" d="M5 46.65h22.093v31.095H5z"/>
    <g fill="#5e2ca5" transform="translate(5.818 47.47)">
      <path d="M17.142 4.184c-.013-.11-.032-.217-.055-.322 1.066-.875 1.765-2.177 1.824-3.645H8.88c.01.232.04.457.08.68H2.09c.036.877.303 1.694.738 2.398-.174.41-.27.858-.27 1.32v16.55c-.797.143-1.48.62-1.895 1.28h11.264c-.466-.742-1.27-1.252-2.196-1.316v-.06c0-1.29 1.06-2.34 2.36-2.34 2.81 0 5.1-2.27 5.1-5.06V7.03l.06.003c1.62 0 2.93-1.27 3-2.857h-3.09zm-.9 9.487c0 2.29-1.867 4.14-4.162 4.14-1.81 0-3.283 1.47-3.283 3.27v.05H3.485v-5.16c.85-.88 1.55-2.04 2.043-3.39-.902 0-1.63-.73-1.63-1.63 0-.9.734-1.63 1.64-1.63.248 0 .48.06.69.16.05-.48.078-.96.078-1.46 0-.83-.073-1.64-.207-2.42.32.07.66.1 1 .1 1.5 0 2.84-.65 3.76-1.69.84.64 1.88 1.02 3.02 1.02.84 0 1.64-.21 2.34-.58 0 .06.01.12.01.19v9.057z"/>
      <path d="M10.57 13.734c0 .94.77 1.705 1.716 1.705h.328c.946 0 1.716-.77 1.716-1.71v-.62h-3.76v.61zm.256-.363h3.248v.37c0 .8-.655 1.45-1.46 1.45h-.328c-.805 0-1.46-.65-1.46-1.45v-.36z"/>
      <ellipse cx="10.335" cy="9.619" rx=".623" ry=".707"/>
      <ellipse cx="14.564" cy="9.619" rx=".623" ry=".707"/>
      <path d="M.232 25.5h12.12v1.387H.232zm0-1.58v.9h12.12v-.9c0-.277-.043-.544-.12-.796H.35c-.076.253-.118.52-.118.795z"/>
    </g>
    <path fill="#fff" d="M54.488 46.65h23.09v32.5H54.49z"/>
    <g fill="#5e2ca5">
      <path d="M64.897 61.69h.55c0-1.04-.848-1.887-1.89-1.887-1.04 0-1.888.847-1.888 1.888h.54c0-.73.6-1.33 1.34-1.33.74 0 1.34.6 1.34 1.34zm-1.527 1.997c0 1.288 1.05 2.336 2.337 2.336h.452c1.28 0 2.33-1.048 2.33-2.336v-.83h-5.12v.83zm.303-.527h4.52v.527c0 1.122-.913 2.034-2.034 2.034h-.46c-1.13 0-2.04-.91-2.04-2.03v-.52zm10.437-1.192c-.505 0-.916.41-.916.917 0 .505.41.917.917.917.51 0 .92-.412.92-.917 0-.506-.41-.917-.91-.917zm0 1.528c-.336 0-.61-.274-.61-.61 0-.338.274-.612.61-.612.337 0 .612.274.612.61 0 .338-.275.612-.61.612z"/>
      <path d="M80.522 65.117v-.59c0-.76-.617-1.376-1.375-1.376h-.682v-1.78c0-.76-.623-1.38-1.39-1.38H74.44c-.093-.09-.192-.17-.296-.25v-8.39c.744-1.05 1.2-2.32 1.256-3.7H61.59c.013.3.045.6.094.88l-2.907 1.44c-.184.04-.36.09-.52.15-.235.1-.39.22-.47.34l-.047.03.016.03c-.022.05-.035.1-.035.15v2.73l-.03.03v2.69l.03.01v3.71c-.71.547-1.18 1.407-1.18 2.376 0 1.65 1.34 2.99 2.99 2.99h.08c.06.143.13.283.2.42l-4.32 4.324c1.62 1.492 4.14 1.454 5.71-.117.53-.53.88-1.17 1.07-1.842.46.227.95.387 1.47.47V70h-.5c-2.16 0-3.91 1.757-3.91 3.92 0 .11.01.22.02.325l.02.275H77.1c.765 0 1.39-.62 1.39-1.39v-.79h.68c.76 0 1.375-.61 1.375-1.37v-.59c0-.49-.26-.92-.643-1.16.388-.25.647-.677.647-1.166v-.59c0-.49-.26-.92-.65-1.164.383-.245.642-.67.642-1.16zM59.1 64.27c-.97-.2-1.704-1.06-1.704-2.09 0-1.03.733-1.89 1.704-2.09v4.18zm.805 9.623c0-1.828 1.488-3.315 3.315-3.315h.503v.1c0 1.164.946 2.11 2.11 2.11 1.162 0 2.11-.946 2.11-2.11v-.1h.702c.39 0 .763.07 1.11.196v2.334c0 .29.092.56.247.785H59.905zm4.42-3.215v-2.184c.1.005.2.015.303.015h2.612c.034 0 .066-.01.1-.01v2.17c0 .83-.677 1.5-1.508 1.5-.83 0-1.507-.68-1.507-1.51zm3.617-.703V68.46c.592-.077 1.153-.25 1.67-.5.04.147.088.294.144.438v1.74c-.353-.104-.725-.163-1.11-.163h-.704zm1.983-9.253c-.33-.55-.93-.92-1.618-.92-1.04 0-1.888.848-1.888 1.89h.54c0-.74.6-1.34 1.34-1.34.73 0 1.34.6 1.34 1.34h.11v5.205c-.73.476-1.59.755-2.52.755h-2.61c-2.54 0-4.6-2.06-4.6-4.592v-6.74c.65-.095 1.3-.32 1.88-.685.31-.193.6-.425.88-.696.42-.42.74-.9.98-1.41.06-.13.11-.26.16-.39l.09-.33c.05-.03.1-.04.15-.07 1.18.94 2.68 1.5 4.31 1.5 1.21 0 2.34-.32 3.33-.86v6.57h-.69c-.53 0-.99.3-1.22.74zm7.623 12.385c0 .26-.212.472-.472.472h-5.93c-.26 0-.473-.22-.473-.48V61.37c0-.26.212-.47.472-.47h5.93c.26 0 .473.21.473.47v1.78H76.42c-.76 0-1.376.618-1.376 1.377v.59c0 .49.26.917.645 1.16-.39.245-.65.673-.65 1.162v.59c0 .49.26.91.64 1.16-.39.24-.65.67-.65 1.16v.59c0 .76.61 1.37 1.37 1.37h1.13v.79zm2.37-2.755v.59c0 .426-.345.773-.77.773H76.42c-.427 0-.773-.347-.773-.773v-.59c0-.426.346-.773.773-.773h2.727c.426 0 .772.34.772.77zm0-2.913v.59c0 .42-.345.77-.77.77H76.42c-.427 0-.773-.35-.773-.77v-.59c0-.43.346-.78.773-.78h2.727c.426 0 .772.34.772.77zm0-2.33c0 .42-.345.77-.77.77H76.42c-.427 0-.773-.35-.773-.78v-.59c0-.43.346-.78.773-.78h2.727c.426 0 .772.34.772.77v.59z"/>
    </g>
  </g>
</svg>
