<svg xmlns="http://www.w3.org/2000/svg" viewBox="0 0 342 83">
  <g fill="none" fill-rule="evenodd">
    <path fill="#5e2ca5" d="M40.237 2.804c0-.526-.342-.876-.855-.876-.513 0-.855.35-.855.876v29.88c0 .525.342.876.855.876.513 0 .855-.35.855-.876V2.804zm-.855 71.676c.513 0 .855-.35.855-.876V49.77c0-.526-.342-.876-.855-.876-.513 0-.855.35-.855.876v23.834c0 .526.427.876.855.876zm-4.277-45.126c.085.35.428.613.77.613.085 0 .17 0 .256-.087.43-.176.69-.7.52-1.14l-4.36-12.354c-.17-.44-.68-.7-1.11-.526-.42.175-.68.7-.51 1.14l4.45 12.354zM29.373 8.938c-.17-.44-.684-.7-1.112-.526-.42.175-.68.7-.51 1.14l1.54 3.942c.17.35.43.526.77.526.09 0 .17 0 .34-.088.43-.175.69-.7.52-1.14l-1.54-3.854zm12.832 36.188c-.17-.438-.685-.7-1.112-.526-.428.176-.685.7-.513 1.14l5.73 16.297c.086.35.43.614.77.614.086 0 .172 0 .257-.08.428-.17.685-.7.514-1.14l-5.64-16.3zM17.91 12.53c-.34.35-.427.876-.085 1.227L36.56 37.065c.17.175.427.35.683.35.17 0 .343-.087.514-.175.342-.35.427-.876.085-1.227L19.194 12.618c-.342-.35-.855-.438-1.283-.088zm42.43 54.677c.17 0 .342-.087.513-.175.342-.35.428-.876.086-1.227L46.39 47.667c-.342-.35-.855-.438-1.197-.087-.343.35-.43.876-.087 1.226L59.65 66.944c.172.176.428.263.685.263zm-45.68-43.11c-.256.44-.085.963.257 1.226l14.37 8.763c.172.087.258.087.43.087.255 0 .597-.175.77-.438.255-.438.084-.964-.258-1.227l-14.38-8.762c-.43-.175-.94-.088-1.2.35zm49.786 31.72c.256 0 .6-.176.77-.44.256-.437.085-.963-.257-1.226L41.6 39.87c-.428-.264-.94-.09-1.198.262-.256.438-.085.963.257 1.226L63.93 55.64c.17.09.34.176.513.176zM29.8 38.29c.43 0 .77-.26.857-.7.085-.438-.17-.963-.685-1.05L6.79 31.806c-.427-.087-.94.176-1.026.7-.086.527.17.965.684 1.053l23.182 4.73h.17zm19.676 4.207l20.102 4.12h.17c.43 0 .77-.264.857-.702.085-.438-.17-.964-.685-1.052l-20.102-4.03c-.428-.088-.94.175-1.026.7 0 .44.256.877.684.964zm-3.764-3.33h.086l14.114-2.19c.428-.087.77-.526.684-.964-.085-.438-.513-.788-.94-.7l-14.115 2.19c-.42.087-.77.526-.68.964.09.35.43.7.86.7zm-28.23 2.543c-.427.086-.77.525-.683.963.08.438.42.788.85.788h.08l16.68-2.54c.42-.08.77-.52.68-.96-.09-.44-.52-.79-.94-.7l-16.68 2.45zm46.194-7.1c-.428.09-.77.527-.684.965.085.438.427.79.855.79h.17l1.284-.176c.43-.09.77-.53.69-.97-.08-.44-.51-.79-.94-.7l-1.37.08zm-50.983 7.8c-.428.087-.77.526-.685.964.086.438.428.788.856.788h.17l1.284-.175c.428-.088.77-.526.684-.964-.085-.438-.513-.788-.94-.7l-1.37.087zM69.15 22.87c-.256-.438-.77-.614-1.197-.35L48.535 33.21c-.428.262-.6.788-.342 1.226.17.263.427.438.77.438.17 0 .256 0 .427-.087l19.418-10.69c.428-.263.6-.79.343-1.227zM31.512 43.812c-.257-.438-.77-.614-1.198-.35L10.982 54.15c-.428.262-.6.788-.342 1.226.17.263.427.438.77.438.17 0 .256 0 .427-.087l19.418-10.692c.343-.262.514-.788.257-1.226zm9.495-6.397c.17.175.342.263.6.263.256 0 .427-.088.598-.263l16.937-19.19c.342-.35.257-.876-.085-1.226-.343-.36-.856-.27-1.198.08L41 36.1c-.342.44-.342.965 0 1.315zm-2.652 2.892c-.342-.35-.855-.263-1.197.087L20.22 59.672c-.342.35-.256.876.086 1.226.17.176.342.263.6.263.255 0 .427-.08.598-.26L38.44 41.71c.26-.526.26-1.05-.084-1.4zM18.082 62.213l-1.882 2.19c-.342.35-.257.877.086 1.227.17.175.342.263.598.263.257 0 .428-.088.6-.263l1.88-2.19c.343-.35.258-.877-.084-1.227-.343-.35-.856-.35-1.198 0zM61.88 14.808l1.88-2.19c.344-.35.258-.876-.084-1.227-.342-.35-.856-.26-1.198.09l-1.882 2.19c-.342.35-.256.88.086 1.23.17.18.342.27.6.27.255 0 .426-.09.598-.35zM44.942 26.375c.342 0 .685-.176.77-.526l7.015-17.44c.17-.44 0-.97-.428-1.14-.43-.18-.95 0-1.12.44l-7.01 17.43c-.17.43 0 .96.43 1.14.08 0 .25.08.34.08zm-8.64 19.715l-8.468 21.117c-.17.438 0 .964.427 1.14.09.087.26.087.35.087.34 0 .69-.175.77-.526l8.55-21.118c.17-.436 0-.962-.43-1.137-.51-.175-1.02 0-1.19.438zM5.85 6.484L5.506 8.06l-1.454.615c-.342.087-.513.438-.6.788-.084.35.172.614.43.79l1.368.788.086 1.58c0 .35.257.62.513.79.08.09.25.09.34.09.17 0 .42-.09.6-.17l1.19-1.05 1.54.44c.34.09.68 0 .85-.26.17-.26.25-.61.17-.87l-.6-1.49.85-1.4c.17-.26.17-.61 0-.96-.17-.26-.52-.43-.77-.43l-1.52.15-1.2-1.32c-.17-.26-.52-.35-.86-.26-.26 0-.52.27-.6.62zm.684 3.067c.256-.08.427-.35.513-.61l.086-.26.17.27c.172.26.428.35.77.35h.343l-.17.27c-.173.27-.173.53-.087.79l.08.26-.26-.17c-.26-.09-.6 0-.77.18l-.26.18v-.35c0-.26-.17-.53-.43-.7l-.26-.09.25-.09zm65.61 52.75c-.17-.26-.513-.43-.77-.43l-1.54.18-1.11-1.22c-.17-.26-.514-.35-.857-.26-.342.09-.598.35-.598.7l-.35 1.58-1.46.62c-.34.09-.52.44-.52.79 0 .35.17.62.42.79l1.37.79.08 1.58c0 .35.25.62.51.79.08.09.25.09.34.09.17 0 .42-.09.6-.17l1.19-1.05 1.54.44c.34.09.68 0 .85-.26.17-.26.25-.61.17-.87l-.77-1.75.85-1.402c.17-.262.17-.613 0-.876zm-2.65 2.54l.084.27-.256-.08c-.257-.09-.6 0-.77.18l-.257.18v-.35c0-.26-.17-.53-.428-.7l-.256-.18.26-.08c.26-.09.43-.35.52-.61l.09-.26.17.27c.17.26.43.35.77.35h.35l-.17.26c-.17.27-.17.53-.08.79zm-65.1 6.84c0 .35.258.62.514.79.086.09.257.09.343.09.18 0 .43-.08.6-.17l1.2-1.05 1.54.44c.34.09.69 0 .86-.26.17-.26.26-.61.17-.87l-.77-1.66.86-1.4c.17-.26.17-.61 0-.96s-.51-.44-.77-.44l-1.54.18-1.03-1.23c-.17-.26-.51-.35-.85-.26-.34.09-.6.35-.6.7l-.34 1.58-1.45.62c-.34.08-.51.43-.51.79 0 .35 0 .52.26.7l1.37.78.17 1.67zm1.113-3.15c.257-.09.428-.35.513-.61l.086-.26.17.27c.172.26.43.35.77.35h.343l-.18.26c-.17.26-.17.53-.09.79l.08.27-.26-.09c-.26-.08-.6 0-.77.18l-.26.18v-.35c0-.26-.17-.53-.43-.7l-.26-.17.26-.09zm58.51-65.37l-1.54-.52-.426-1.58c-.08-.36-.34-.53-.68-.62-.34-.08-.68.09-.85.35l-.94 1.32h-1.63c-.34 0-.6.18-.77.44-.17.27-.08.62.09.97l.94 1.31-.51 1.49c-.08.35 0 .7.17.87.26.26.6.35.86.26l1.54-.52 1.28.97c.17.09.34.17.51.17s.25 0 .34-.08c.25-.18.51-.44.51-.79V5.52l1.28-.876c.26-.175.43-.526.34-.876-.08-.35-.25-.526-.51-.614zm-2.48 1.32c-.256.18-.342.44-.342.7v.35l-.256-.17c-.18-.09-.35-.17-.52-.17h-.26l-.26.09.08-.26c.08-.26.08-.61-.09-.79l-.17-.26h.34c.25 0 .51-.08.68-.35l.17-.26.08.26c.08.27.26.53.51.62l.26.09-.26.177zM6.193 50.21c.598 0 1.112-.175 1.54-.613 1.026-.876 1.11-2.454.17-3.505-.855-1.055-2.395-1.14-3.42-.178-1.028.876-1.113 2.453-.172 3.505.52.52 1.2.78 1.89.78zm-.514-2.98c.17-.087.25-.174.42-.174.17 0 .34.087.51.263.25.26.25.7-.09.96-.26.27-.69.27-.94-.08-.18-.26-.18-.7.08-.96zm44.56 24.45c.6 0 1.11-.177 1.54-.615 1.02-.877 1.11-2.454.17-3.505-.86-1.052-2.4-1.14-3.34-.263-.52.438-.77 1.05-.77 1.665 0 .61.17 1.31.6 1.75.42.7 1.11.963 1.79.963zm-.52-2.98c.17-.09.25-.176.42-.176.17 0 .34.09.51.265.26.26.26.7-.09.96-.26.26-.69.26-.94-.09-.09-.18-.17-.35-.17-.53.08-.09.17-.27.25-.44zM8.41 18.31c-.6 0-1.28.176-1.71.614-1.03.876-1.11 2.453-.17 3.505.43.52 1.028.79 1.627.79h.17c.6 0 1.11-.18 1.54-.62.51-.44.77-1.05.77-1.67s-.17-1.32-.6-1.75c-.43-.53-.94-.88-1.63-.88zm.34 2.98c-.17.087-.34.175-.51.175s-.342-.088-.43-.263c-.254-.263-.254-.7.088-.964.087-.08.258-.17.43-.17h.086c.17 0 .342.09.427.27.09.175.17.35.17.525-.08.176-.17.35-.25.44z" opacity=".5"/>
    <text fill="#5e2ca5" font-family="WorkSans-SemiBold, Work Sans" font-size="48" font-weight="500" letter-spacing=".597">
      <tspan x="99" y="58">IndieCoop</tspan>
    </text>
    <path fill="#fff" d="M0 46h25v35.185H0z"/>
    <g fill="#5e2ca5" transform="translate(.926 46.926)">
      <path d="M19.398 4.735c-.016-.124-.036-.245-.063-.365 1.207-.99 1.997-2.464 2.064-4.124H10.04c.01.262.045.517.09.768H2.36c.04.993.34 1.918.832 2.714-.196.466-.304.97-.304 1.493v18.73c-.902.16-1.674.7-2.144 1.45H13.49c-.527-.84-1.437-1.42-2.484-1.49v-.06c0-1.46 1.194-2.64 2.663-2.64 3.17 0 5.76-2.57 5.76-5.72V7.96c.02 0 .04.003.07.003 1.82 0 3.31-1.434 3.38-3.23h-3.49zm-1.02 10.735c0 2.58-2.112 4.68-4.71 4.68-2.047 0-3.714 1.657-3.714 3.692v.057h-6.01v-5.84c.96-1 1.755-2.31 2.31-3.84-1.02-.01-1.845-.83-1.845-1.85s.83-1.85 1.85-1.85c.28 0 .54.06.78.17.05-.55.08-1.1.08-1.66 0-.95-.08-1.86-.24-2.74.37.07.75.11 1.14.11 1.69 0 3.21-.74 4.26-1.92.95.72 2.13 1.14 3.42 1.14.95 0 1.85-.24 2.64-.65 0 .07.01.13.01.2v10.25z"/>
      <path d="M11.96 15.54c0 1.065.872 1.93 1.942 1.93h.372c1.07 0 1.94-.865 1.94-1.93v-.697H11.96v.698zm.29-.41h3.676v.41c0 .906-.74 1.642-1.652 1.642h-.372c-.91 0-1.65-.736-1.65-1.64v-.41z"/>
      <ellipse cx="11.695" cy="10.884" rx=".705" ry=".8"/>
      <ellipse cx="16.481" cy="10.884" rx=".705" ry=".8"/>
      <path d="M.262 28.854h13.714v1.57H.262zm0-1.788v1.02h13.714v-1.02c0-.312-.047-.614-.133-.9H.396c-.086.287-.134.588-.134.9z"/>
    </g>
    <path fill="#fff" d="M56 46h26.13v36.774H56z"/>
    <g fill="#5e2ca5">
      <path d="M67.78 63.02h.62c0-1.18-.96-2.138-2.137-2.138-1.178 0-2.137.96-2.137 2.137h.62c0-.84.68-1.52 1.516-1.52s1.517.68 1.517 1.51zm-1.728 2.257c0 1.458 1.185 2.643 2.643 2.643h.51c1.458 0 2.644-1.185 2.644-2.643v-.937h-5.8v.937zm.34-.596h5.116v.6c0 1.27-1.033 2.3-2.302 2.3h-.51c-1.27 0-2.303-1.03-2.303-2.3v-.59zm11.812-1.34c-.572 0-1.037.47-1.037 1.04 0 .58.465 1.04 1.037 1.04.572 0 1.037-.46 1.037-1.03 0-.57-.46-1.03-1.03-1.03zm0 1.73c-.38 0-.692-.31-.692-.69 0-.38.31-.69.692-.69.38 0 .692.31.692.69 0 .38-.31.69-.692.69z"/>
      <path d="M85.46 66.896v-.668c0-.86-.7-1.557-1.557-1.557h-.772v-2.01c0-.86-.7-1.57-1.57-1.57h-2.98c-.1-.1-.21-.2-.33-.28v-9.5c.84-1.19 1.36-2.63 1.42-4.18H64.04c.013.34.05.67.106 1l-3.29 1.63c-.208.04-.408.1-.588.17-.266.12-.442.25-.533.39l-.053.02c.004.02.01.03.017.04-.03.05-.04.11-.04.16v3.08l-.04.04v3.04l.03.01v4.19c-.81.62-1.34 1.59-1.34 2.69 0 1.87 1.51 3.38 3.38 3.38h.08c.07.16.14.32.23.48l-4.9 4.89c1.83 1.69 4.68 1.65 6.46-.13.6-.6.99-1.32 1.2-2.08.52.26 1.07.44 1.66.54v1.75h-.57c-2.45 0-4.44 1.99-4.44 4.43 0 .12.01.245.02.37l.02.31h20.07c.86 0 1.57-.705 1.57-1.57v-.895h.77c.86 0 1.55-.7 1.55-1.56v-.67c0-.553-.298-1.04-.73-1.313.432-.27.73-.76.73-1.31v-.67c0-.552-.298-1.04-.73-1.312.432-.274.73-.76.73-1.312zm-24.242-.96c-1.1-.224-1.928-1.2-1.928-2.364s.83-2.14 1.928-2.364v4.73zm.912 10.89c0-2.068 1.683-3.75 3.75-3.75h.57v.113c0 1.31 1.07 2.38 2.386 2.38 1.317 0 2.387-1.07 2.387-2.39v-.12h.796c.44 0 .86.08 1.25.22v2.64c0 .33.1.63.28.89H62.13zm5-3.637v-2.48c.115 0 .228.01.343.01h2.957c.037 0 .074-.01.11-.01v2.46c0 .94-.763 1.7-1.704 1.7-.94 0-1.705-.77-1.705-1.71zm4.093-.8v-1.72c.67-.09 1.306-.28 1.89-.57.046.17.1.33.164.49v1.97c-.4-.12-.82-.19-1.258-.19h-.8zm2.244-10.47c-.374-.62-1.053-1.04-1.83-1.04-1.178 0-2.137.96-2.137 2.13h.62c0-.84.68-1.52 1.517-1.52.835 0 1.515.68 1.515 1.51h.124v5.89c-.818.54-1.795.85-2.846.85h-2.957c-2.867 0-5.2-2.33-5.2-5.2v-7.62c.743-.11 1.468-.36 2.125-.78.354-.22.69-.48.996-.79.474-.48.842-1.01 1.108-1.59.068-.14.13-.29.18-.44.045-.12.077-.25.112-.37.06-.03.12-.05.178-.08h.002c1.337 1.06 3.03 1.7 4.875 1.7 1.37 0 2.65-.36 3.77-.98v7.44h-.78c-.6 0-1.12.34-1.38.836zm8.627 14.01c0 .29-.24.53-.534.53h-6.712c-.294 0-.534-.24-.534-.54V62.65c0-.294.24-.534.534-.534h6.712c.294 0 .534.24.534.534v2.016h-1.277c-.858 0-1.557.7-1.557 1.56v.666c0 .554.293 1.038.73 1.313-.437.274-.73.76-.73 1.312v.668c0 .557.293 1.04.73 1.317-.437.276-.73.76-.73 1.314v.67c0 .857.7 1.555 1.557 1.555h1.277v.9zm2.683-3.12v.66c0 .48-.392.87-.874.87h-3.086c-.482 0-.874-.4-.874-.88v-.66c0-.49.392-.88.874-.88h3.086c.482 0 .874.39.874.87zm0-3.3v.67c0 .48-.392.87-.874.87h-3.086c-.482 0-.874-.39-.874-.88v-.67c0-.49.392-.88.874-.88h3.086c.482 0 .874.39.874.87zm0-2.63c0 .48-.392.87-.874.87h-3.086c-.482 0-.874-.39-.874-.88v-.67c0-.48.392-.88.874-.88h3.086c.482 0 .874.39.874.87v.67z"/>
    </g>
  </g>
</svg>
