<svg xmlns="http://www.w3.org/2000/svg" xmlns:xlink="http://www.w3.org/1999/xlink" version="1.1" x="0px" y="0px" viewBox="0 0 100 100" style="enable-background:new 0 0 100 100;" xml:space="preserve"><style type="text/css">
	.st0{fill:none;stroke:#000000;stroke-width:2;stroke-linecap:round;stroke-linejoin:round;stroke-miterlimit:10;}
	.st1{stroke:#000000;stroke-width:0.5;stroke-linecap:round;stroke-linejoin:round;stroke-miterlimit:10;}
	.st2{stroke:#000000;stroke-width:0.25;stroke-linecap:round;stroke-linejoin:round;stroke-miterlimit:10;}
</style><path d="M52.7,11.2c0-0.6-0.4-1-1-1s-1,0.4-1,1v34.1c0,0.6,0.4,1,1,1s1-0.4,1-1V11.2z"></path><path d="M51.7,93c0.6,0,1-0.4,1-1V64.8c0-0.6-0.4-1-1-1s-1,0.4-1,1V92C50.7,92.6,51.2,93,51.7,93z"></path><path d="M46.7,41.5c0.1,0.4,0.5,0.7,0.9,0.7c0.1,0,0.2,0,0.3-0.1c0.5-0.2,0.8-0.8,0.6-1.3l-5.1-14.1c-0.2-0.5-0.8-0.8-1.3-0.6  c-0.5,0.2-0.8,0.8-0.6,1.3L46.7,41.5z"></path><path d="M40,18.2c-0.2-0.5-0.8-0.8-1.3-0.6c-0.5,0.2-0.8,0.8-0.6,1.3l1.8,4.5c0.2,0.4,0.5,0.6,0.9,0.6c0.1,0,0.2,0,0.4-0.1  c0.5-0.2,0.8-0.8,0.6-1.3L40,18.2z"></path><path d="M55,59.5c-0.2-0.5-0.8-0.8-1.3-0.6c-0.5,0.2-0.8,0.8-0.6,1.3l6.7,18.6c0.1,0.4,0.5,0.7,0.9,0.7c0.1,0,0.2,0,0.3-0.1  c0.5-0.2,0.8-0.8,0.6-1.3L55,59.5z"></path><path d="M26.6,22.3c-0.4,0.4-0.5,1-0.1,1.4l21.9,26.6c0.2,0.2,0.5,0.4,0.8,0.4c0.2,0,0.4-0.1,0.6-0.2c0.4-0.4,0.5-1,0.1-1.4  L28.1,22.4C27.7,22,27.1,21.9,26.6,22.3z"></path><path d="M76.2,84.7c0.2,0,0.4-0.1,0.6-0.2c0.4-0.4,0.5-1,0.1-1.4l-17-20.7c-0.4-0.4-1-0.5-1.4-0.1c-0.4,0.4-0.5,1-0.1,1.4l17,20.7  C75.6,84.6,75.9,84.7,76.2,84.7z"></path><path d="M22.8,35.5c-0.3,0.5-0.1,1.1,0.3,1.4l16.8,10c0.2,0.1,0.3,0.1,0.5,0.1c0.3,0,0.7-0.2,0.9-0.5c0.3-0.5,0.1-1.1-0.3-1.4  l-16.8-10C23.7,34.9,23.1,35,22.8,35.5z"></path><path d="M81,71.7c0.3,0,0.7-0.2,0.9-0.5c0.3-0.5,0.1-1.1-0.3-1.4L54.3,53.5c-0.5-0.3-1.1-0.1-1.4,0.3c-0.3,0.5-0.1,1.1,0.3,1.4  l27.2,16.3C80.6,71.6,80.8,71.7,81,71.7z"></path><path d="M40.5,51.7c0.5,0,0.9-0.3,1-0.8c0.1-0.5-0.2-1.1-0.8-1.2l-27.1-5.4c-0.5-0.1-1.1,0.2-1.2,0.8s0.2,1.1,0.8,1.2l27.1,5.4  C40.4,51.7,40.5,51.7,40.5,51.7z"></path><path d="M63.5,56.5L87,61.2c0.1,0,0.1,0,0.2,0c0.5,0,0.9-0.3,1-0.8c0.1-0.5-0.2-1.1-0.8-1.2l-23.5-4.6c-0.5-0.1-1.1,0.2-1.2,0.8  C62.7,55.9,63,56.4,63.5,56.5z"></path><path d="M59.1,52.7c0,0,0.1,0,0.1,0l16.5-2.5c0.5-0.1,0.9-0.6,0.8-1.1c-0.1-0.5-0.6-0.9-1.1-0.8l-16.5,2.5c-0.5,0.1-0.9,0.6-0.8,1.1  C58.2,52.3,58.6,52.7,59.1,52.7z"></path><path d="M26.1,55.6c-0.5,0.1-0.9,0.6-0.8,1.1c0.1,0.5,0.5,0.9,1,0.9c0,0,0.1,0,0.1,0l19.5-2.9c0.5-0.1,0.9-0.6,0.8-1.1  c-0.1-0.5-0.6-0.9-1.1-0.8L26.1,55.6z"></path><path d="M80.1,47.5c-0.5,0.1-0.9,0.6-0.8,1.1c0.1,0.5,0.5,0.9,1,0.9c0,0,0.1,0,0.2,0l1.5-0.2c0.5-0.1,0.9-0.6,0.8-1.1  c-0.1-0.5-0.6-0.9-1.1-0.8L80.1,47.5z"></path><path d="M20.5,56.4c-0.5,0.1-0.9,0.6-0.8,1.1c0.1,0.5,0.5,0.9,1,0.9c0,0,0.1,0,0.2,0l1.5-0.2c0.5-0.1,0.9-0.6,0.8-1.1  c-0.1-0.5-0.6-0.9-1.1-0.8L20.5,56.4z"></path><path d="M86.5,34.1c-0.3-0.5-0.9-0.7-1.4-0.4L62.4,45.9c-0.5,0.3-0.7,0.9-0.4,1.4c0.2,0.3,0.5,0.5,0.9,0.5c0.2,0,0.3,0,0.5-0.1  l22.7-12.2C86.6,35.2,86.8,34.6,86.5,34.1z"></path><path d="M42.5,58c-0.3-0.5-0.9-0.7-1.4-0.4L18.5,69.8c-0.5,0.3-0.7,0.9-0.4,1.4c0.2,0.3,0.5,0.5,0.9,0.5c0.2,0,0.3,0,0.5-0.1  l22.7-12.2C42.6,59.1,42.8,58.5,42.5,58z"></path><path d="M53.6,50.7c0.2,0.2,0.4,0.3,0.7,0.3c0.3,0,0.5-0.1,0.7-0.3l19.8-21.9c0.4-0.4,0.3-1-0.1-1.4c-0.4-0.4-1-0.3-1.4,0.1  L53.6,49.2C53.2,49.7,53.2,50.3,53.6,50.7z"></path><path d="M50.5,54c-0.4-0.4-1-0.3-1.4,0.1L29.3,76.1c-0.4,0.4-0.3,1,0.1,1.4c0.2,0.2,0.4,0.3,0.7,0.3c0.3,0,0.5-0.1,0.7-0.3  l19.8-21.9C50.9,55,50.9,54.4,50.5,54z"></path><path d="M26.8,79l-2.2,2.5c-0.4,0.4-0.3,1,0.1,1.4c0.2,0.2,0.4,0.3,0.7,0.3c0.3,0,0.5-0.1,0.7-0.3l2.2-2.5c0.4-0.4,0.3-1-0.1-1.4  C27.8,78.6,27.2,78.6,26.8,79z"></path><path d="M78,24.9l2.2-2.5c0.4-0.4,0.3-1-0.1-1.4c-0.4-0.4-1-0.3-1.4,0.1l-2.2,2.5c-0.4,0.4-0.3,1,0.1,1.4c0.2,0.2,0.4,0.3,0.7,0.3  C77.6,25.3,77.8,25.2,78,24.9z"></path><path d="M58.2,38.1c0.4,0,0.8-0.2,0.9-0.6l8.2-19.9c0.2-0.5,0-1.1-0.5-1.3c-0.5-0.2-1.1,0-1.3,0.5l-8.2,19.9c-0.2,0.5,0,1.1,0.5,1.3  C57.9,38,58.1,38.1,58.2,38.1z"></path><path d="M48.1,60.6l-9.9,24.1c-0.2,0.5,0,1.1,0.5,1.3c0.1,0.1,0.3,0.1,0.4,0.1c0.4,0,0.8-0.2,0.9-0.6L50,61.4c0.2-0.5,0-1.1-0.5-1.3  C48.9,59.9,48.3,60.1,48.1,60.6z"></path><path d="M12.5,15.4l-0.4,1.8l-1.7,0.7C10,18,9.8,18.4,9.7,18.8s0.2,0.7,0.5,0.9l1.6,0.9l0.1,1.8c0,0.4,0.3,0.7,0.6,0.9  c0.1,0.1,0.3,0.1,0.4,0.1c0.2,0,0.5-0.1,0.7-0.2L15,22l1.8,0.5c0.4,0.1,0.8,0,1-0.3s0.3-0.7,0.2-1l-0.7-1.7l1-1.6  c0.2-0.3,0.2-0.7,0-1.1c-0.2-0.3-0.6-0.5-0.9-0.5l-1.8,0.2L14.2,15c-0.2-0.3-0.6-0.4-1-0.3C12.9,14.7,12.6,15,12.5,15.4z M13.3,18.9  c0.3-0.1,0.5-0.4,0.6-0.7l0.1-0.3l0.2,0.3c0.2,0.3,0.5,0.4,0.9,0.4l0.4,0l-0.2,0.3c-0.2,0.3-0.2,0.6-0.1,0.9l0.1,0.3L15,19.9  c-0.3-0.1-0.7,0-0.9,0.2l-0.3,0.2l0-0.4c0-0.3-0.2-0.6-0.5-0.8L13,19L13.3,18.9z"></path><path d="M90,79.1c-0.2-0.3-0.6-0.5-0.9-0.5l-1.8,0.2L86,77.4c-0.2-0.3-0.6-0.4-1-0.3c-0.4,0.1-0.7,0.4-0.7,0.8l-0.4,1.8l-1.7,0.7  c-0.4,0.1-0.6,0.5-0.6,0.9s0.2,0.7,0.5,0.9l1.6,0.9l0.1,1.8c0,0.4,0.3,0.7,0.6,0.9c0.1,0.1,0.3,0.1,0.4,0.1c0.2,0,0.5-0.1,0.7-0.2  l1.4-1.2l1.8,0.5c0.4,0.1,0.8,0,1-0.3s0.3-0.7,0.2-1L89,81.7l1-1.6C90.2,79.8,90.2,79.4,90,79.1z M86.9,82l0.1,0.3l-0.3-0.1  c-0.3-0.1-0.7,0-0.9,0.2l-0.3,0.2l0-0.4c0-0.3-0.2-0.6-0.5-0.8l-0.3-0.2l0.3-0.1c0.3-0.1,0.5-0.4,0.6-0.7l0.1-0.3l0.2,0.3  c0.2,0.3,0.5,0.4,0.9,0.4l0.4,0L87,81.1C86.8,81.4,86.8,81.7,86.9,82z"></path><path d="M10.8,89.8c0,0.4,0.3,0.7,0.6,0.9c0.1,0.1,0.3,0.1,0.4,0.1c0.2,0,0.5-0.1,0.7-0.2l1.4-1.2l1.8,0.5c0.4,0.1,0.8,0,1-0.3  s0.3-0.7,0.2-1L16,86.7l1-1.6c0.2-0.3,0.2-0.7,0-1.1s-0.6-0.5-0.9-0.5l-1.8,0.2l-1.2-1.4c-0.2-0.3-0.6-0.4-1-0.3  c-0.4,0.1-0.7,0.4-0.7,0.8l-0.4,1.8l-1.7,0.7c-0.4,0.1-0.6,0.5-0.6,0.9S8.7,86.8,9,87l1.6,0.9L10.8,89.8z M12.1,86.2  c0.3-0.1,0.5-0.4,0.6-0.7l0.1-0.3l0.2,0.3c0.2,0.3,0.5,0.4,0.9,0.4l0.4,0l-0.2,0.3c-0.2,0.3-0.2,0.6-0.1,0.9l0.1,0.3l-0.3-0.1  c-0.3-0.1-0.7,0-0.9,0.2l-0.3,0.2l0-0.4c0-0.3-0.2-0.6-0.5-0.8l-0.3-0.2L12.1,86.2z"></path><path d="M80.5,11.6l-1.8-0.6l-0.5-1.8c-0.1-0.4-0.4-0.6-0.8-0.7c-0.4-0.1-0.8,0.1-1,0.4l-1.1,1.5l-1.9,0c-0.4,0-0.7,0.2-0.9,0.5  s-0.1,0.7,0.1,1.1l1.1,1.5l-0.6,1.7c-0.1,0.4,0,0.8,0.2,1c0.3,0.3,0.7,0.4,1,0.3l1.8-0.6l1.5,1.1c0.2,0.1,0.4,0.2,0.6,0.2  c0.2,0,0.3,0,0.4-0.1c0.3-0.2,0.6-0.5,0.6-0.9l0-1.9l1.5-1c0.3-0.2,0.5-0.6,0.4-1S80.8,11.7,80.5,11.6z M77.6,13.1  c-0.3,0.2-0.4,0.5-0.4,0.8l0,0.4l-0.3-0.2c-0.2-0.1-0.4-0.2-0.6-0.2c-0.1,0-0.2,0-0.3,0L75.7,14l0.1-0.3c0.1-0.3,0.1-0.7-0.1-0.9  l-0.2-0.3l0.4,0c0.3,0,0.6-0.1,0.8-0.4l0.2-0.3l0.1,0.3c0.1,0.3,0.3,0.6,0.6,0.7l0.3,0.1L77.6,13.1z"></path><path d="M12.9,65.3c0.7,0,1.3-0.2,1.8-0.7c1.2-1,1.3-2.8,0.2-4c-1-1.2-2.8-1.3-4-0.2c-1.2,1-1.3,2.8-0.2,4  C11.3,65,12.1,65.3,12.9,65.3z M12.3,61.9c0.2-0.1,0.3-0.2,0.5-0.2c0.2,0,0.4,0.1,0.6,0.3c0,0,0,0,0,0c0.3,0.3,0.3,0.8-0.1,1.1  c-0.3,0.3-0.8,0.3-1.1-0.1C12,62.7,12,62.2,12.3,61.9z"></path><path d="M64.4,89.8c0.7,0,1.3-0.2,1.8-0.7c1.2-1,1.3-2.8,0.2-4c-1-1.2-2.8-1.3-3.9-0.3c-0.6,0.5-0.9,1.2-0.9,1.9  c0,0.7,0.2,1.5,0.7,2C62.8,89.5,63.6,89.8,64.4,89.8z M63.8,86.4c0.2-0.1,0.3-0.2,0.5-0.2c0.2,0,0.4,0.1,0.6,0.3c0,0,0,0,0,0  c0.3,0.3,0.3,0.8-0.1,1.1c-0.3,0.3-0.8,0.3-1.1-0.1c-0.1-0.2-0.2-0.4-0.2-0.6C63.6,86.8,63.7,86.6,63.8,86.4z"></path><path d="M15.5,28.9c-0.7,0-1.5,0.2-2,0.7c-1.2,1-1.3,2.8-0.2,4c0.5,0.6,1.2,0.9,1.9,0.9c0.1,0,0.1,0,0.2,0c0.7,0,1.3-0.2,1.8-0.7  c0.6-0.5,0.9-1.2,0.9-1.9c0-0.7-0.2-1.5-0.7-2C16.9,29.3,16.3,28.9,15.5,28.9z M15.9,32.3c-0.2,0.1-0.4,0.2-0.6,0.2  c-0.2,0-0.4-0.1-0.5-0.3c-0.3-0.3-0.3-0.8,0.1-1.1c0.1-0.1,0.3-0.2,0.5-0.2c0,0,0,0,0.1,0c0.2,0,0.4,0.1,0.5,0.3c0,0,0,0,0,0  c0.1,0.2,0.2,0.4,0.2,0.6C16.1,32,16,32.2,15.9,32.3z"></path></svg>