<svg xmlns="http://www.w3.org/2000/svg" xmlns:xlink="http://www.w3.org/1999/xlink" version="1.1" x="0px" y="0px" viewBox="0 0 100 100" enable-background="new 0 0 100 100" xml:space="preserve"><symbol viewBox="-35.139 -29.587 51.423 34.154"><path fill="#000000" stroke="#000000" stroke-width="2.5" stroke-miterlimit="10" d="M-15.035-27.947v18.741   c0,6.916,5.606,12.522,12.522,12.522h8.381c5.062,0,9.165-4.103,9.165-9.165v0c0-4.621-3.781-8.402-8.402-8.402h-7.311   c-2.767,0-5.01-2.243-5.01-5.01v-8.687H-15.035z"></path><polygon fill="#000000" points="-4.241,-25.587 -35.139,-25.587 -35.139,-29.587 -4.241,-29.587  "></polygon></symbol><g display="none"><rect x="-101" y="-597" display="inline" fill="#000000" stroke="#000000" stroke-miterlimit="10" width="1294" height="964"></rect></g><g><path d="M72.307,19.584c-0.044-0.354-0.103-0.703-0.179-1.045c3.44-2.841,5.695-7.069,5.886-11.833H45.638   c0.03,0.751,0.129,1.482,0.258,2.203h-22.16c0.115,2.85,0.976,5.502,2.377,7.788c-0.559,1.336-0.867,2.786-0.867,4.282v53.739   c-2.575,0.46-4.777,2.01-6.117,4.155h36.339c-1.505-2.41-4.1-4.068-7.086-4.273v-0.194c0-4.187,3.406-7.593,7.593-7.593   c9.059,0,16.429-7.37,16.429-16.429V28.843c0.066,0.001,0.131,0.01,0.197,0.01c5.204,0,9.446-4.115,9.653-9.268H72.307z    M69.403,50.385c0,7.405-6.024,13.429-13.429,13.429c-5.841,0-10.593,4.752-10.593,10.593v0.163H28.245V57.837   c2.74-2.85,5.003-6.625,6.589-11.022c-2.909-0.02-5.262-2.381-5.262-5.295c0-2.927,2.372-5.299,5.299-5.299   c0.797,0,1.546,0.189,2.225,0.504c0.158-1.552,0.248-3.136,0.248-4.753c0-2.709-0.233-5.337-0.666-7.848   c1.049,0.213,2.134,0.328,3.246,0.328c4.838,0,9.175-2.126,12.143-5.489c2.716,2.056,6.09,3.286,9.759,3.286   c2.726,0,5.294-0.673,7.547-1.862c0.014,0.196,0.03,0.392,0.03,0.592V50.385z"></path><path d="M51.103,50.589c0,3.052,2.483,5.535,5.535,5.535h1.06c3.052,0,5.535-2.483,5.535-5.535v-2.003h-12.13V50.589z    M51.929,49.412h10.478v1.177c0,2.597-2.112,4.709-4.709,4.709h-1.06c-2.597,0-4.709-2.112-4.709-4.709V49.412z"></path><ellipse cx="50.346" cy="37.229" rx="2.009" ry="2.296"></ellipse><ellipse cx="63.99" cy="37.229" rx="2.009" ry="2.296"></ellipse><rect x="17.747" y="88.787" width="39.102" height="4.507"></rect><path d="M17.747,83.656v2.928h39.102v-2.928c0-0.896-0.136-1.761-0.381-2.58h-38.34C17.883,81.896,17.747,82.76,17.747,83.656z"></path></g></svg>